  <svg
              width="522"
              height="591"
              viewBox="0 0 522 591"
              fill="none"
              xmlns="http://www.w3.org/2000/svg"
            >
              <g opacity="0.2">
                <circle
                  opacity="0.1"
                  cx="218.851"
                  cy="327.362"
                  r="218.198"
                  fill="#5466F8"
                />
                <circle
                  opacity="0.5"
                  cx="218.851"
                  cy="327.362"
                  r="142.78"
                  fill="#5466F8"
                />
              </g>
              <path
                d="M175.242 46.7975L182.889 1.82446"
                stroke="#516AF8"
                stroke-width="2"
                stroke-linecap="round"
                stroke-linejoin="round"
              />
              <path
                d="M147.877 66.2715L99.1695 60.0743"
                stroke="#516AF8"
                stroke-width="2"
                stroke-linecap="round"
                stroke-linejoin="round"
              />
              <path
                d="M153.786 57.0368L137.646 50.7385"
                stroke="#516AF8"
                stroke-width="2"
                stroke-linecap="round"
                stroke-linejoin="round"
              />
              <path
                d="M167.392 48.1678L164.786 33.2407"
                stroke="#516AF8"
                stroke-width="2"
                stroke-linecap="round"
                stroke-linejoin="round"
              />
              <path
                d="M183.166 47.8072L192.515 36.092"
                stroke="#516AF8"
                stroke-width="2"
                stroke-linecap="round"
                stroke-linejoin="round"
              />
              <path
                d="M159.725 51.8985L137.901 26.0834"
                stroke="#516AF8"
                stroke-width="2"
                stroke-linecap="round"
                stroke-linejoin="round"
              />
              <path
                d="M453 95.9976C428.87 136.658 458.255 194.989 440.605 214.591C422.955 234.193 384.678 160.095 400.144 149.577C415.61 139.059 448.106 214.273 420.464 234.739C392.822 255.206 342.296 192.522 359.449 178.89C376.603 165.259 421.64 223.903 396.913 257.327C372.186 290.751 326.954 298.334 326.954 298.334"
                stroke="url(#paint0_linear_2_1850)"
                stroke-width="2"
                stroke-linecap="round"
                stroke-linejoin="round"
              />
              <path
                d="M338.149 289.097C338.149 289.097 331.452 296.007 325.705 298.79C333.13 298.79 340.698 301.827 340.698 301.827"
                stroke="url(#paint1_linear_2_1850)"
                stroke-width="2"
                stroke-linecap="round"
                stroke-linejoin="round"
              />
              <path
                fill-rule="evenodd"
                clip-rule="evenodd"
                d="M55.4266 246.394C54.0459 246.394 52.9266 245.275 52.9266 243.894V243.418C52.9266 242.038 54.0459 240.918 55.4266 240.918C56.8073 240.918 57.9266 242.038 57.9266 243.418V243.894C57.9266 245.275 56.8073 246.394 55.4266 246.394ZM55.4266 226.896C54.0459 226.896 52.9266 225.777 52.9266 224.396V223.445C52.9266 222.064 54.0459 220.945 55.4266 220.945C56.8073 220.945 57.9266 222.064 57.9266 223.445V224.396C57.9266 225.777 56.8073 226.896 55.4266 226.896ZM55.4266 206.922C54.0459 206.922 52.9266 205.803 52.9266 204.422V203.471C52.9266 202.091 54.0459 200.971 55.4266 200.971C56.8073 200.971 57.9266 202.091 57.9266 203.471V204.422C57.9266 205.803 56.8073 206.922 55.4266 206.922ZM55.4266 186.949C54.0459 186.949 52.9266 185.83 52.9266 184.449V183.498C52.9266 182.117 54.0459 180.998 55.4266 180.998C56.8073 180.998 57.9266 182.117 57.9266 183.498V184.449C57.9266 185.83 56.8073 186.949 55.4266 186.949ZM55.4266 166.975C54.0459 166.975 52.9266 165.856 52.9266 164.475V163.524C52.9266 162.143 54.0459 161.024 55.4266 161.024C56.8073 161.024 57.9266 162.143 57.9266 163.524V164.475C57.9266 165.856 56.8073 166.975 55.4266 166.975ZM55.4266 147.002C54.0459 147.002 52.9266 145.882 52.9266 144.502V143.551C52.9266 142.17 54.0459 141.051 55.4266 141.051C56.8073 141.051 57.9266 142.17 57.9266 143.551V144.502C57.9266 145.882 56.8073 147.002 55.4266 147.002ZM55.4266 127.028C54.0459 127.028 52.9266 125.909 52.9266 124.528V123.577C52.9266 122.196 54.0459 121.077 55.4266 121.077C56.8073 121.077 57.9266 122.196 57.9266 123.577V124.528C57.9266 125.909 56.8073 127.028 55.4266 127.028ZM55.4266 107.055C54.0459 107.055 52.9266 105.935 52.9266 104.555V104.079C52.9266 102.698 54.0459 101.579 55.4266 101.579C56.8073 101.579 57.9266 102.698 57.9266 104.079V104.555C57.9266 105.935 56.8073 107.055 55.4266 107.055ZM36.6179 266.148C35.2372 266.148 34.1179 265.029 34.1179 263.648V263.173C34.1179 261.792 35.2372 260.673 36.6179 260.673C37.9986 260.673 39.1179 261.792 39.1179 263.173V263.648C39.1179 265.029 37.9986 266.148 36.6179 266.148ZM36.6179 246.65C35.2372 246.65 34.1179 245.531 34.1179 244.15V243.199C34.1179 241.819 35.2372 240.699 36.6179 240.699C37.9986 240.699 39.1179 241.819 39.1179 243.199V244.15C39.1179 245.531 37.9986 246.65 36.6179 246.65ZM36.6179 226.677C35.2372 226.677 34.1179 225.558 34.1179 224.177V223.226C34.1179 221.845 35.2372 220.726 36.6179 220.726C37.9986 220.726 39.1179 221.845 39.1179 223.226V224.177C39.1179 225.558 37.9986 226.677 36.6179 226.677ZM36.6179 206.703C35.2372 206.703 34.1179 205.584 34.1179 204.203V203.252C34.1179 201.872 35.2372 200.752 36.6179 200.752C37.9986 200.752 39.1179 201.872 39.1179 203.252V204.203C39.1179 205.584 37.9986 206.703 36.6179 206.703ZM36.6179 186.73C35.2372 186.73 34.1179 185.611 34.1179 184.23V183.279C34.1179 181.898 35.2372 180.779 36.6179 180.779C37.9986 180.779 39.1179 181.898 39.1179 183.279V184.23C39.1179 185.611 37.9986 186.73 36.6179 186.73ZM36.6179 166.756C35.2372 166.756 34.1179 165.637 34.1179 164.256V163.305C34.1179 161.924 35.2372 160.805 36.6179 160.805C37.9986 160.805 39.1179 161.924 39.1179 163.305V164.256C39.1179 165.637 37.9986 166.756 36.6179 166.756ZM36.6179 146.783C35.2372 146.783 34.1179 145.663 34.1179 144.283V143.332C34.1179 141.951 35.2372 140.832 36.6179 140.832C37.9986 140.832 39.1179 141.951 39.1179 143.332V144.283C39.1179 145.663 37.9986 146.783 36.6179 146.783ZM36.6179 126.809C35.2372 126.809 34.1179 125.69 34.1179 124.309V123.834C34.1179 122.453 35.2372 121.334 36.6179 121.334C37.9986 121.334 39.1179 122.453 39.1179 123.834V124.309C39.1179 125.69 37.9986 126.809 36.6179 126.809ZM15.6623 282.505C15.6623 283.886 16.7816 285.005 18.1623 285.005C19.543 285.005 20.6623 283.886 20.6623 282.505V282.03C20.6623 280.649 19.543 279.53 18.1623 279.53C16.7816 279.53 15.6623 280.649 15.6623 282.03V282.505ZM15.6623 263.007C15.6623 264.388 16.7816 265.507 18.1623 265.507C19.543 265.507 20.6623 264.388 20.6623 263.007V262.056C20.6623 260.675 19.543 259.556 18.1623 259.556C16.7816 259.556 15.6623 260.675 15.6623 262.056V263.007ZM15.6623 243.034C15.6623 244.414 16.7816 245.534 18.1623 245.534C19.543 245.534 20.6623 244.414 20.6623 243.034V242.082C20.6623 240.702 19.543 239.582 18.1623 239.582C16.7816 239.582 15.6623 240.702 15.6623 242.082V243.034ZM15.6623 223.06C15.6623 224.441 16.7816 225.56 18.1623 225.56C19.543 225.56 20.6623 224.441 20.6623 223.06V222.109C20.6623 220.728 19.543 219.609 18.1623 219.609C16.7816 219.609 15.6623 220.728 15.6623 222.109V223.06ZM15.6623 203.087C15.6623 204.467 16.7816 205.587 18.1623 205.587C19.543 205.587 20.6623 204.467 20.6623 203.087V202.135C20.6623 200.755 19.543 199.635 18.1623 199.635C16.7816 199.635 15.6623 200.755 15.6623 202.135V203.087ZM15.6623 183.113C15.6623 184.494 16.7816 185.613 18.1623 185.613C19.543 185.613 20.6623 184.494 20.6623 183.113V182.162C20.6623 180.781 19.543 179.662 18.1623 179.662C16.7816 179.662 15.6623 180.781 15.6623 182.162V183.113ZM15.6623 163.139C15.6623 164.52 16.7816 165.639 18.1623 165.639C19.543 165.639 20.6623 164.52 20.6623 163.139V162.188C20.6623 160.808 19.543 159.688 18.1623 159.688C16.7816 159.688 15.6623 160.808 15.6623 162.188V163.139ZM15.6623 143.166C15.6623 144.547 16.7816 145.666 18.1623 145.666C19.543 145.666 20.6623 144.547 20.6623 143.166V142.69C20.6623 141.31 19.543 140.19 18.1623 140.19C16.7816 140.19 15.6623 141.31 15.6623 142.69V143.166Z"
                fill="url(#paint2_linear_2_1850)"
              />
              <path
                fill-rule="evenodd"
                clip-rule="evenodd"
                d="M440.882 472.006C426.382 462.786 407.319 465.559 396.046 478.527V478.527C384.074 492.299 384.805 512.989 397.72 525.881L431.125 559.226C447.996 576.068 475.775 574.449 490.577 555.763V555.763C505.269 537.215 500.678 510.028 480.711 497.332L440.882 472.006Z"
                stroke="url(#paint3_linear_2_1850)"
                stroke-width="2.8"
                stroke-linejoin="round"
              />
              <path
                d="M449.704 478.094L403.874 531.994"
                stroke="url(#paint4_linear_2_1850)"
                stroke-width="2.1"
                stroke-linejoin="round"
              />
              <path
                d="M394.939 479.674L407.492 490.841"
                stroke="url(#paint5_linear_2_1850)"
                stroke-width="2.1"
                stroke-linejoin="round"
              />
              <rect
                width="10.5"
                height="24.5"
                rx="5.25"
                transform="matrix(-0.656059 0.75471 0.75471 0.656059 410.763 486.968)"
                fill="url(#paint6_linear_2_1850)"
              />
              <path
                d="M394.939 479.674C394.939 479.674 354.405 450.334 382.603 430.056C404.669 414.186 336.289 411.78 326 395"
                stroke="url(#paint7_linear_2_1850)"
                stroke-width="2.1"
              />
              <defs>
                <linearGradient
                  id="paint0_linear_2_1850"
                  x1="317.142"
                  y1="16.6498"
                  x2="605.636"
                  y2="35.9854"
                  gradientUnits="userSpaceOnUse"
                >
                  <stop stop-color="#3A8EF6" />
                  <stop offset="1" stop-color="#6F3AFA" />
                </linearGradient>
                <linearGradient
                  id="paint1_linear_2_1850"
                  x1="328.034"
                  y1="282.109"
                  x2="360.826"
                  y2="293.892"
                  gradientUnits="userSpaceOnUse"
                >
                  <stop stop-color="#3A8EF6" />
                  <stop offset="1" stop-color="#6F3AFA" />
                </linearGradient>
                <linearGradient
                  id="paint2_linear_2_1850"
                  x1="12.3723"
                  y1="29.6473"
                  x2="109.482"
                  y2="32.0547"
                  gradientUnits="userSpaceOnUse"
                >
                  <stop stop-color="#3A8EF6" />
                  <stop offset="1" stop-color="#6F3AFA" />
                </linearGradient>
                <linearGradient
                  id="paint3_linear_2_1850"
                  x1="395.315"
                  y1="405.212"
                  x2="273.835"
                  y2="568.839"
                  gradientUnits="userSpaceOnUse"
                >
                  <stop stop-color="#3A8EF6" />
                  <stop offset="1" stop-color="#6F3AFA" />
                </linearGradient>
                <linearGradient
                  id="paint4_linear_2_1850"
                  x1="452.98"
                  y1="473.168"
                  x2="471.371"
                  y2="496.147"
                  gradientUnits="userSpaceOnUse"
                >
                  <stop stop-color="#3A8EF6" />
                  <stop offset="1" stop-color="#6F3AFA" />
                </linearGradient>
                <linearGradient
                  id="paint5_linear_2_1850"
                  x1="390.117"
                  y1="475.179"
                  x2="389.067"
                  y2="476.398"
                  gradientUnits="userSpaceOnUse"
                >
                  <stop stop-color="#3A8EF6" />
                  <stop offset="1" stop-color="#6F3AFA" />
                </linearGradient>
                <linearGradient
                  id="paint6_linear_2_1850"
                  x1="-0.817365"
                  y1="-9.60785"
                  x2="23.2718"
                  y2="-8.49711"
                  gradientUnits="userSpaceOnUse"
                >
                  <stop stop-color="#3A8EF6" />
                  <stop offset="1" stop-color="#6F3AFA" />
                </linearGradient>
                <linearGradient
                  id="paint7_linear_2_1850"
                  x1="400.305"
                  y1="361.794"
                  x2="243.016"
                  y2="375.572"
                  gradientUnits="userSpaceOnUse"
                >
                  <stop stop-color="#3A8EF6" />
                  <stop offset="1" stop-color="#6F3AFA" />
                </linearGradient>
              </defs>
            </svg>