 <svg width="70" height="70" viewBox="0 0 70 70" fill="none" xmlns="http://www.w3.org/2000/svg">
                    <g filter="url(#filter0_di_2_1927)">
                    <circle cx="35" cy="31" r="16" fill="url(#paint0_linear_2_1927)"/>
                    </g>
                    <g clip-path="url(#clip0_2_1927)">
                    <path d="M44.1616 33.5397C44.1441 33.5163 44.1253 33.4946 44.1051 33.4737C43.5237 32.7467 42.4727 32.6007 41.7398 33.1508C40.6836 33.9293 38.8765 35.2392 38.2734 35.6764L35.6387 35.4699L37.2507 35.117C38.1142 34.9914 38.7332 34.2295 38.6958 33.3302C38.6956 33.3206 38.6949 33.3111 38.694 33.3018C38.6192 32.4032 37.889 31.7256 36.9958 31.7256H32.1205C31.7244 31.7256 31.3548 31.827 31.0219 32.0268C31.0086 32.0349 30.9954 32.0433 30.9825 32.0524L25.7897 35.6805C25.4818 35.8957 25.4065 36.32 25.6217 36.6277C25.8366 36.9358 26.2611 37.0114 26.5688 36.7957L31.7398 33.1828C31.855 33.1177 31.9797 33.0857 32.1207 33.0857H36.996C37.177 33.0857 37.3153 33.2145 37.3371 33.4004C37.3387 33.5641 37.2505 33.746 37.0477 33.7714C37.0273 33.7739 37.0069 33.7773 36.9867 33.7818L34.0842 34.4167C33.8577 34.4664 33.672 34.6278 33.5915 34.8453C33.511 35.063 33.5468 35.3065 33.6867 35.4915L34.4577 36.5119C34.5749 36.6673 34.7532 36.765 34.9473 36.7802L38.4166 37.0523C38.5772 37.0639 38.738 37.0196 38.8686 36.9251C38.8923 36.9078 41.2668 35.1892 42.5513 34.2425C42.698 34.1326 42.9314 34.1743 43.05 34.333C43.0631 34.3505 43.0772 34.3674 43.0919 34.3833C43.1833 34.5328 43.1484 34.7244 43.0035 34.833L38.402 38.3014C38.2666 38.4027 38.1255 38.4413 37.9643 38.4199L31.2523 37.581C31.0691 37.5581 30.8849 37.6105 30.7412 37.7261L28.1788 39.7898C27.8861 40.0256 27.84 40.454 28.0757 40.7465C28.2099 40.9133 28.407 41 28.6058 41C28.7557 41 28.9065 40.9508 29.0319 40.8499L31.3696 38.9671L37.7898 39.7696C38.3018 39.8378 38.7952 39.7065 39.219 39.3891L43.8213 35.9208C44.5716 35.358 44.7242 34.29 44.1616 33.5397Z" fill="white"/>
                    <path d="M38.1065 23.3583C37.7308 23.3583 37.4263 23.6629 37.4263 24.0386V28.1203C37.4263 28.496 37.7308 28.8005 38.1065 28.8005C38.4823 28.8005 38.7868 28.496 38.7868 28.1203V24.0386C38.7868 23.6629 38.4823 23.3583 38.1065 23.3583Z" fill="white"/>
                    <path d="M40.1473 25.399H36.0656C35.6899 25.399 35.3854 25.7035 35.3854 26.0793C35.3854 26.455 35.6899 26.7595 36.0656 26.7595H40.1473C40.523 26.7595 40.8276 26.455 40.8276 26.0793C40.8276 25.7035 40.523 25.399 40.1473 25.399Z" fill="white"/>
                    <path d="M38.1065 21C35.3056 21 33.0273 23.2785 33.0273 26.0794C33.0273 28.8803 35.3056 31.1587 38.1065 31.1587C40.9071 31.1587 43.1859 28.8803 43.1859 26.0794C43.1859 23.2784 40.9074 21 38.1065 21ZM38.1065 29.7982C36.0559 29.7982 34.3879 28.13 34.3879 26.0794C34.3879 24.0288 36.0559 22.3605 38.1065 22.3605C40.157 22.3605 41.8253 24.0288 41.8253 26.0794C41.8253 28.13 40.1571 29.7982 38.1065 29.7982Z" fill="white"/>
                    </g>
                    <defs>
                    <filter id="filter0_di_2_1927" x="0" y="0" width="70" height="70" filterUnits="userSpaceOnUse" color-interpolation-filters="sRGB">
                    <feFlood flood-opacity="0" result="BackgroundImageFix"/>
                    <feColorMatrix in="SourceAlpha" type="matrix" values="0 0 0 0 0 0 0 0 0 0 0 0 0 0 0 0 0 0 127 0" result="hardAlpha"/>
                    <feOffset dy="4"/>
                    <feGaussianBlur stdDeviation="9.5"/>
                    <feComposite in2="hardAlpha" operator="out"/>
                    <feColorMatrix type="matrix" values="0 0 0 0 0.0862745 0 0 0 0 0.470588 0 0 0 0 0.94902 0 0 0 0.2 0"/>
                    <feBlend mode="normal" in2="BackgroundImageFix" result="effect1_dropShadow_2_1927"/>
                    <feBlend mode="normal" in="SourceGraphic" in2="effect1_dropShadow_2_1927" result="shape"/>
                    <feColorMatrix in="SourceAlpha" type="matrix" values="0 0 0 0 0 0 0 0 0 0 0 0 0 0 0 0 0 0 127 0" result="hardAlpha"/>
                    <feOffset dy="4"/>
                    <feGaussianBlur stdDeviation="2"/>
                    <feComposite in2="hardAlpha" operator="arithmetic" k2="-1" k3="1"/>
                    <feColorMatrix type="matrix" values="0 0 0 0 0 0 0 0 0 0 0 0 0 0 0 0 0 0 0.12 0"/>
                    <feBlend mode="normal" in2="shape" result="effect2_innerShadow_2_1927"/>
                    </filter>
                    <linearGradient id="paint0_linear_2_1927" x1="16.509" y1="2.45098" x2="89.2378" y2="10.2758" gradientUnits="userSpaceOnUse">
                    <stop stop-color="#3A8EF6"/>
                    <stop offset="1" stop-color="#6F3AFA"/>
                    </linearGradient>
                    <clipPath id="clip0_2_1927">
                    <rect width="20" height="20" fill="white" transform="translate(25 21)"/>
                    </clipPath>
                    </defs>
                    </svg>